<?xml version="1.0" standalone="no"?>
<!DOCTYPE svg PUBLIC "-//W3C//DTD SVG 20010904//EN"
 "http://www.w3.org/TR/2001/REC-SVG-20010904/DTD/svg10.dtd">
<svg version="1.0" xmlns="http://www.w3.org/2000/svg"
 width="114.000000pt" height="24.000000pt" viewBox="0 0 114.000000 24.000000"
 preserveAspectRatio="xMidYMid meet">

<g transform="translate(0.000000,24.000000) scale(0.100000,-0.100000)"
fill="#000000" stroke="none">
<path d="M14 205 c-4 -8 0 -23 7 -32 11 -13 11 -17 2 -20 -7 -3 -13 -18 -13
-35 0 -19 4 -28 12 -25 7 2 12 10 10 16 -2 12 4 15 51 25 22 5 27 12 27 36 0
19 -7 33 -19 40 -29 15 -71 12 -77 -5z m74 -33 c3 -9 -2 -13 -14 -10 -9 1 -19
9 -22 16 -3 9 2 13 14 10 9 -1 19 -9 22 -16z"/>
<path d="M130 156 l0 -66 45 0 c38 0 45 3 45 19 0 23 -22 40 -28 23 -2 -7 -10
-12 -18 -12 -14 0 -16 7 -18 64 0 16 -7 31 -13 33 -10 4 -13 -13 -13 -61z"/>
<path d="M237 213 c-12 -11 -8 -98 5 -111 16 -16 63 -15 77 1 18 22 21 108 4
114 -8 3 -20 0 -26 -7 -9 -10 -9 -14 1 -17 17 -6 15 -58 -3 -73 -12 -10 -18
-10 -30 0 -18 15 -20 67 -3 72 6 2 8 10 4 16 -8 13 -19 15 -29 5z"/>
<path d="M350 153 c0 -49 3 -63 15 -63 10 0 15 10 15 32 l0 33 23 -32 c20 -30
47 -44 47 -25 0 4 -6 14 -12 21 -10 11 -10 14 0 18 6 3 12 18 12 34 0 32 -29
50 -75 47 -24 -2 -25 -6 -25 -65z m78 20 c6 -19 -25 -16 -32 3 -4 11 -1 14 11
12 9 -2 18 -9 21 -15z"/>
<path d="M476 213 c-3 -3 -6 -33 -6 -65 l0 -58 45 0 c41 0 45 2 45 25 0 14 -4
25 -10 25 -5 0 -10 -4 -10 -10 0 -5 -9 -10 -20 -10 -17 0 -20 7 -20 44 0 43
-10 63 -24 49z"/>
<path d="M575 210 c-3 -5 -3 -16 2 -22 13 -21 14 -48 3 -69 -9 -15 -7 -21 5
-25 24 -10 51 4 37 18 -15 15 -16 74 -2 83 6 4 8 11 5 16 -8 12 -42 12 -50 -1z"/>
<path d="M640 155 l0 -65 55 0 56 0 -3 63 c-2 37 -7 60 -13 57 -5 -3 -9 -17
-8 -32 2 -37 -10 -35 -38 7 -37 53 -49 46 -49 -30z m55 -33 c-11 -11 -34 8
-28 24 6 15 7 15 20 -1 7 -10 11 -21 8 -23z"/>
<path d="M792 204 c-15 -10 -22 -25 -22 -48 0 -64 70 -90 110 -39 26 33 22 46
-16 53 -26 5 -27 7 -10 17 10 5 16 15 12 22 -10 16 -48 14 -74 -5z m28 -55 c0
-31 -14 -39 -24 -13 -8 21 3 56 15 49 5 -4 9 -19 9 -36z m45 -19 c-3 -5 -10
-10 -16 -10 -5 0 -9 5 -9 10 0 6 7 10 16 10 8 0 12 -4 9 -10z"/>
<path d="M900 208 c0 -19 50 -118 60 -118 9 0 60 101 60 121 0 5 -27 8 -60 7
-33 -1 -60 -5 -60 -10z m80 -26 c0 -5 -6 -16 -13 -26 -12 -17 -14 -16 -25 8
-11 24 -10 26 13 26 14 0 25 -4 25 -8z"/>
<path d="M1064 212 c-11 -7 -54 -97 -54 -113 0 -24 23 -5 38 31 9 22 19 40 22
40 3 0 13 -18 22 -40 17 -41 45 -57 33 -19 -8 25 -45 109 -48 109 -1 0 -7 -4
-13 -8z"/>
</g>
</svg>
