<?xml version="1.0" standalone="no"?>
<!DOCTYPE svg PUBLIC "-//W3C//DTD SVG 20010904//EN"
 "http://www.w3.org/TR/2001/REC-SVG-20010904/DTD/svg10.dtd">
<svg version="1.0" xmlns="http://www.w3.org/2000/svg"
 width="227.000000pt" height="46.000000pt" viewBox="0 0 227.000000 46.000000"
 preserveAspectRatio="xMidYMid meet">

<g transform="translate(0.000000,46.000000) scale(0.100000,-0.100000)"
fill="#000000" stroke="none">
<path d="M20 417 c0 -16 12 -44 26 -63 l26 -34 -26 0 c-25 0 -26 -2 -26 -65 0
-62 1 -65 24 -65 21 0 25 5 28 38 3 36 5 37 43 40 72 4 86 11 101 48 12 28 13
43 4 70 -6 18 -17 37 -23 41 -7 5 -49 10 -95 13 l-82 5 0 -28z m145 -61 c0
-42 -18 -42 -50 -1 l-27 36 38 -3 c36 -3 39 -6 39 -32z"/>
<path d="M260 318 l0 -129 88 3 87 3 0 45 c0 25 -4 48 -8 51 -18 13 -47 -3
-47 -26 0 -21 -7 -23 -62 -16 -5 1 -8 43 -8 95 0 92 0 94 -25 98 l-25 5 0
-129z"/>
<path d="M1594 435 c-47 -24 -68 -71 -62 -134 7 -75 38 -103 117 -109 58 -4
62 -3 95 30 32 32 57 100 42 115 -3 3 -27 6 -53 7 -41 1 -48 4 -51 22 -3 18 1
21 22 17 32 -6 46 21 23 44 -22 22 -96 27 -133 8z m32 -183 c-3 -3 -15 3 -26
13 -27 25 -26 75 3 105 l22 25 3 -69 c2 -38 1 -71 -2 -74z m94 30 c0 -10 -22
-32 -31 -32 -4 0 -7 9 -6 20 1 19 37 30 37 12z"/>
<path d="M452 340 c3 -92 5 -102 29 -126 20 -20 37 -26 72 -26 88 -2 117 42
117 180 l0 72 -45 0 c-41 0 -45 -2 -45 -25 0 -16 6 -25 15 -25 12 0 15 -13 15
-59 0 -68 -17 -94 -59 -89 -33 4 -51 39 -51 101 0 40 3 47 20 47 15 0 19 6 18
25 -2 23 -7 25 -46 25 l-44 0 4 -100z"/>
<path d="M700 315 l0 -125 25 0 c23 0 24 4 27 63 l3 62 48 -62 c40 -52 53 -63
78 -63 35 0 36 3 3 45 l-26 35 26 31 c28 33 32 58 14 92 -20 39 -40 46 -120
47 l-78 0 0 -125z m149 56 c7 -13 6 -23 -3 -36 -15 -21 -27 -16 -56 25 l-21
30 35 0 c24 0 38 -6 45 -19z"/>
<path d="M940 315 l0 -125 90 0 90 0 0 48 c0 57 -2 61 -35 54 -18 -3 -25 -11
-25 -27 0 -18 -5 -22 -32 -21 l-33 1 -3 98 c-3 96 -3 97 -27 97 l-25 0 0 -125z"/>
<path d="M1140 415 c0 -14 5 -25 10 -25 6 0 10 -32 10 -76 0 -47 -4 -73 -10
-69 -6 4 -10 -7 -10 -24 0 -30 1 -31 50 -31 49 0 50 1 50 31 0 17 -4 28 -10
24 -6 -4 -10 22 -10 69 0 44 4 76 10 76 6 0 10 11 10 25 0 23 -3 25 -50 25
-47 0 -50 -2 -50 -25z"/>
<path d="M1273 318 l2 -123 113 -3 112 -3 0 126 0 125 -30 0 -30 0 0 -72 -1
-73 -29 35 c-16 19 -39 52 -52 72 -19 30 -29 38 -55 38 l-32 0 2 -122z m91
-18 c32 -48 33 -61 4 -56 -13 3 -26 5 -30 5 -8 1 -12 91 -4 91 2 0 15 -18 30
-40z"/>
<path d="M1782 432 c92 -226 101 -242 127 -242 23 0 30 10 65 93 21 50 45 107
52 125 l14 32 -131 0 c-72 0 -129 -4 -127 -8z m158 -92 c-11 -28 -20 -53 -20
-55 0 -3 -4 -5 -9 -5 -8 0 -17 19 -48 98 -4 9 9 12 46 12 l51 0 -20 -50z"/>
<path d="M2052 320 c-29 -66 -52 -122 -52 -125 0 -4 14 -5 31 -3 28 3 33 9 60
78 17 41 33 78 37 82 4 4 23 -31 42 -78 32 -77 37 -84 62 -84 28 0 37 16 20
35 -5 6 -28 56 -52 113 -39 94 -44 102 -69 102 -25 0 -31 -9 -79 -120z"/>
<path d="M507 103 c-4 -3 -7 -22 -7 -41 0 -34 0 -35 20 -17 19 17 20 17 21 -1
1 -11 4 -6 8 11 10 41 -18 73 -42 48z m22 -20 c-7 -10 -15 -20 -16 -22 -2 -2
-3 5 -3 17 0 14 6 22 16 22 14 0 15 -3 3 -17z"/>
<path d="M61 66 c-1 -38 -1 -39 19 -21 19 17 20 17 20 1 0 -9 4 -14 10 -11 13
8 13 52 1 60 -6 3 -16 -5 -22 -17 l-13 -23 -7 25 c-6 21 -7 19 -8 -14z"/>
<path d="M163 94 c20 -6 23 -24 5 -24 -9 0 -8 -4 2 -10 10 -6 11 -10 3 -10 -7
0 -13 -5 -13 -11 0 -6 8 -9 18 -7 12 2 17 12 17 33 -1 25 -5 30 -25 32 -15 1
-18 0 -7 -3z"/>
<path d="M230 88 c0 -9 5 -20 11 -23 6 -4 8 -13 5 -21 -3 -8 -2 -14 3 -14 11
0 36 59 28 66 -3 3 -8 -5 -12 -17 l-7 -22 -14 24 c-10 18 -13 20 -14 7z"/>
<path d="M353 79 c-6 -21 -7 -21 -19 -4 -8 10 -17 16 -20 12 -9 -9 15 -37 31
-37 8 0 16 -6 18 -12 3 -7 6 4 6 25 1 41 -8 49 -16 16z"/>
<path d="M416 72 c-20 -39 -20 -48 -1 -32 12 10 18 10 30 0 20 -16 20 5 1 39
l-14 25 -16 -32z"/>
<path d="M640 61 c0 -27 3 -32 12 -23 8 8 15 9 25 1 10 -9 13 -4 13 25 0 32
-3 36 -25 34 -21 -2 -25 -7 -25 -37z m40 9 c0 -5 -7 -10 -15 -10 -8 0 -15 5
-15 10 0 6 7 10 15 10 8 0 15 -4 15 -10z"/>
<path d="M724 89 c-5 -9 -2 -10 9 -6 9 3 19 2 22 -3 3 -5 -3 -11 -12 -13 -17
-4 -17 -5 0 -6 9 0 17 -6 17 -12 0 -6 -7 -9 -15 -6 -8 4 -17 2 -20 -3 -4 -6 6
-10 20 -10 24 0 26 3 23 32 -3 34 -29 50 -44 27z"/>
<path d="M809 68 c-5 -35 -3 -38 18 -38 13 0 27 8 30 17 6 15 7 15 14 -3 5
-13 7 -7 7 21 0 22 -2 32 -5 23 -2 -10 -14 -18 -26 -19 -12 0 -16 -3 -9 -6 6
-2 10 -9 6 -14 -11 -18 -23 -8 -26 24 l-3 32 -6 -37z"/>
<path d="M922 65 c0 -22 2 -32 5 -22 6 22 12 22 29 0 7 -10 14 -13 14 -6 0 6
-5 15 -10 18 -7 4 -6 14 1 28 9 20 9 20 -4 5 -18 -23 -24 -23 -30 0 -3 9 -5
-1 -5 -23z"/>
<path d="M1042 88 c-14 -14 -16 -32 -3 -23 5 3 12 -5 14 -17 3 -15 5 -9 6 15
1 41 0 42 -17 25z"/>
<path d="M1150 66 c0 -32 3 -36 25 -36 22 0 24 4 22 33 -2 24 -8 33 -25 35
-19 3 -22 -1 -22 -32z m30 14 c0 -5 -4 -10 -10 -10 -5 0 -10 5 -10 10 0 6 5
10 10 10 6 0 10 -4 10 -10z m10 -30 c0 -5 -7 -10 -15 -10 -8 0 -15 5 -15 10 0
6 7 10 15 10 8 0 15 -4 15 -10z"/>
<path d="M1237 86 c-4 -9 -3 -26 2 -38 l8 -22 6 24 c8 29 -7 61 -16 36z"/>
<path d="M1277 73 c-11 -13 -16 -27 -12 -31 3 -3 10 0 15 8 7 10 10 11 10 3 0
-7 5 -13 10 -13 12 0 13 30 2 46 -5 8 -13 4 -25 -13z"/>
<path d="M1345 88 c-10 -28 2 -53 26 -55 15 -1 17 0 7 3 -10 3 -18 9 -18 14 0
5 8 11 18 13 16 4 16 5 0 6 -10 0 -18 5 -18 10 0 5 8 12 18 14 12 4 11 5 -6 6
-12 0 -25 -5 -27 -11z"/>
<path d="M1430 85 c-24 -29 18 -72 43 -45 9 10 9 11 -1 6 -15 -9 -44 12 -36
25 3 5 14 9 25 9 11 0 17 5 14 10 -9 15 -31 12 -45 -5z"/>
<path d="M1508 93 c6 -2 12 -15 12 -28 0 -13 5 -27 10 -30 6 -3 10 4 10 17 0
13 5 29 12 36 9 9 4 12 -22 11 -19 0 -29 -3 -22 -6z"/>
<path d="M1590 65 c0 -32 2 -35 28 -34 23 2 24 2 5 6 -27 5 -31 23 -5 24 15 0
14 1 -3 8 -19 8 -19 8 0 19 19 11 19 11 -2 12 -20 0 -23 -5 -23 -35z"/>
<path d="M1722 87 c-16 -19 -3 -57 19 -57 11 0 19 5 19 11 0 5 -4 8 -9 5 -5
-3 -14 0 -20 8 -8 10 -8 16 2 25 8 6 17 8 20 4 4 -3 7 -1 7 5 0 16 -25 15 -38
-1z"/>
<path d="M1852 65 c0 -22 2 -32 5 -22 2 9 13 17 23 17 10 0 21 -8 23 -17 3
-10 5 0 5 22 0 22 -2 32 -5 23 -2 -10 -13 -18 -23 -18 -10 0 -21 8 -23 18 -3
9 -5 -1 -5 -23z"/>
<path d="M1953 73 c-18 -38 -16 -45 7 -31 17 11 22 10 30 -2 14 -21 13 4 -2
35 -14 32 -20 31 -35 -2z"/>
<path d="M2041 65 c0 -31 2 -36 9 -20 5 11 9 14 9 8 1 -14 21 -19 21 -5 0 4
-9 18 -20 32 l-20 25 1 -40z"/>
<path d="M2148 95 c-4 -8 -4 -37 1 -65 1 -2 5 0 11 6 5 5 6 22 2 39 -5 16 -11
25 -14 20z"/>
<path d="M2179 84 c-8 -10 -9 -18 -2 -22 5 -4 13 -14 16 -22 3 -8 6 2 6 23 1
41 -1 44 -20 21z"/>
<path d="M1000 66 c0 -26 15 -43 24 -28 7 12 -4 52 -15 52 -5 0 -9 -11 -9 -24z"/>
<path d="M2086 81 c-8 -12 3 -41 15 -41 5 0 9 11 9 25 0 25 -14 34 -24 16z"/>
</g>
</svg>
