<?xml version="1.0" standalone="no"?>
<!DOCTYPE svg PUBLIC "-//W3C//DTD SVG 20010904//EN"
 "http://www.w3.org/TR/2001/REC-SVG-20010904/DTD/svg10.dtd">
<svg version="1.0" xmlns="http://www.w3.org/2000/svg"
 width="300.000000pt" height="300.000000pt" viewBox="0 0 300.000000 300.000000"
 preserveAspectRatio="xMidYMid meet">

<g transform="translate(0.000000,300.000000) scale(0.100000,-0.100000)"
fill="#000000" stroke="none">
<path d="M380 1677 c0 -16 12 -44 26 -63 l26 -34 -26 0 c-25 0 -26 -2 -26 -65
0 -62 1 -65 24 -65 21 0 25 5 28 36 3 35 5 37 43 40 68 6 82 13 99 49 14 29
15 42 6 70 -6 19 -17 38 -23 42 -7 5 -49 10 -95 13 l-82 5 0 -28z m148 -58 c5
-42 -22 -43 -53 -3 l-27 35 38 -3 c34 -3 39 -7 42 -29z"/>
<path d="M620 1578 l0 -129 87 3 88 3 -1 48 c-1 55 -5 61 -33 52 -13 -4 -21
-15 -21 -29 0 -18 -5 -22 -32 -21 l-33 1 -3 96 c-3 93 -3 96 -27 101 l-25 4 0
-129z"/>
<path d="M1965 1701 c-59 -26 -92 -106 -70 -171 24 -72 132 -105 195 -60 30
21 60 76 60 109 0 19 -6 21 -55 21 -52 0 -55 1 -55 25 0 22 3 25 25 19 31 -8
45 20 22 43 -18 18 -93 27 -122 14z m25 -121 c0 -38 -3 -70 -7 -70 -18 0 -43
36 -43 62 0 30 26 78 41 78 5 0 9 -31 9 -70z m90 -44 c0 -8 -7 -17 -16 -20
-23 -9 -24 -8 -24 14 0 13 7 20 20 20 11 0 20 -6 20 -14z"/>
<path d="M2461 1691 c-15 -28 -101 -230 -101 -235 0 -3 13 -6 29 -6 27 0 31 6
64 88 l35 87 36 -79 c20 -43 36 -82 36 -87 0 -5 14 -9 30 -9 17 0 30 2 30 4 0
2 -9 23 -19 47 -10 24 -33 78 -50 120 -26 62 -37 78 -57 82 -16 3 -28 -1 -33
-12z"/>
<path d="M810 1613 c0 -70 4 -95 20 -120 25 -41 76 -57 128 -40 53 17 72 60
72 165 l0 82 -45 0 c-41 0 -45 -2 -45 -25 0 -16 6 -25 15 -25 12 0 15 -14 15
-65 0 -55 -3 -66 -21 -75 -52 -28 -89 10 -89 91 0 36 4 48 18 51 10 3 18 15
19 26 2 20 -3 22 -43 22 l-44 0 0 -87z"/>
<path d="M1060 1575 l0 -125 25 0 c23 0 24 4 27 63 l3 62 48 -62 c40 -52 53
-63 78 -63 35 0 36 3 3 45 l-26 35 26 31 c30 35 32 58 11 98 -18 37 -31 41
-121 41 l-74 0 0 -125z m149 56 c7 -13 6 -23 -3 -36 -15 -21 -27 -16 -56 25
l-21 30 35 0 c24 0 38 -6 45 -19z"/>
<path d="M1300 1575 l0 -125 90 0 90 0 0 48 c0 57 -2 61 -35 54 -19 -3 -25
-11 -25 -29 0 -21 -4 -24 -32 -21 l-33 3 -3 98 c-3 96 -3 97 -27 97 l-25 0 0
-125z"/>
<path d="M1500 1675 c0 -14 5 -25 10 -25 6 0 10 -32 10 -76 0 -47 -4 -73 -10
-69 -6 4 -10 -7 -10 -24 0 -30 1 -31 50 -31 49 0 50 1 50 30 0 17 -4 30 -10
30 -6 0 -10 30 -10 70 0 40 4 70 10 70 6 0 10 11 10 25 0 23 -3 25 -50 25 -47
0 -50 -2 -50 -25z"/>
<path d="M1632 1578 l3 -123 110 0 110 0 3 123 3 122 -30 0 -30 0 -3 -72 -3
-72 -53 72 c-46 61 -58 72 -83 72 l-30 0 3 -122z m101 -30 c33 -45 33 -47 0
-43 -16 2 -31 4 -35 4 -5 1 -8 22 -8 48 0 26 4 43 8 38 4 -6 20 -27 35 -47z"/>
<path d="M2140 1697 c0 -3 64 -155 93 -219 8 -20 19 -28 37 -28 22 0 30 11 64
93 21 50 45 107 52 125 l14 32 -130 0 c-71 0 -130 -1 -130 -3z m160 -97 c-11
-28 -20 -53 -20 -55 0 -3 -4 -5 -9 -5 -8 0 -17 19 -48 98 -4 9 9 12 46 12 l51
0 -20 -50z"/>
<path d="M867 1363 c-10 -17 -11 -62 -2 -60 6 1 9 13 7 26 -2 13 3 28 10 32 9
6 9 9 1 9 -6 0 -14 -3 -16 -7z"/>
<path d="M421 1326 c-1 -38 -1 -39 19 -21 19 17 20 17 20 0 0 -26 13 -10 16
20 4 33 -12 41 -27 13 l-13 -23 -7 25 c-6 21 -7 19 -8 -14z"/>
<path d="M523 1354 c20 -6 22 -20 5 -27 -8 -3 -5 -6 5 -6 10 -1 16 -5 12 -11
-3 -5 -13 -6 -23 -3 -13 5 -15 3 -5 -7 19 -20 42 -5 40 27 -2 22 -8 28 -27 30
-15 1 -18 0 -7 -3z"/>
<path d="M590 1348 c0 -9 5 -20 10 -23 8 -5 7 -11 -1 -21 -9 -11 -8 -14 3 -14
8 0 20 11 26 25 15 32 15 56 1 32 -10 -18 -11 -18 -25 0 -12 16 -13 16 -14 1z"/>
<path d="M714 1338 c-6 -20 -8 -20 -19 -5 -15 21 -25 22 -25 3 0 -8 10 -18 23
-22 12 -4 25 -12 29 -18 4 -6 8 6 8 27 0 42 -5 47 -16 15z"/>
<path d="M783 1348 c-6 -7 -14 -23 -18 -36 -6 -22 -5 -22 14 -10 18 11 23 11
31 -2 16 -24 12 10 -4 38 -10 19 -15 21 -23 10z"/>
<path d="M889 1344 c-8 -10 -9 -18 -2 -22 5 -4 13 -14 16 -22 3 -8 6 2 6 23 1
41 -1 44 -20 21z"/>
<path d="M1000 1324 c0 -32 2 -35 16 -23 13 10 17 10 25 -2 6 -10 9 -3 9 24 0
33 -3 37 -25 37 -22 0 -25 -4 -25 -36z m40 6 c0 -5 -7 -10 -15 -10 -8 0 -15 5
-15 10 0 6 7 10 15 10 8 0 15 -4 15 -10z"/>
<path d="M1090 1351 c0 -6 8 -11 18 -12 14 0 14 -2 -3 -9 -17 -7 -17 -9 -2 -9
9 -1 17 -6 17 -12 0 -6 -7 -9 -15 -6 -8 4 -17 1 -21 -4 -4 -7 3 -9 17 -7 19 2
24 9 24 33 0 20 -5 31 -17 33 -10 2 -18 -1 -18 -7z"/>
<path d="M1171 1328 c-1 -32 2 -38 19 -38 11 0 24 8 27 17 6 15 7 15 14 -3 5
-13 7 -7 7 21 0 22 -2 32 -5 23 -3 -11 -14 -18 -28 -18 -14 0 -25 7 -28 18 -3
9 -5 0 -6 -20z m34 -18 c-3 -5 -10 -10 -16 -10 -5 0 -9 5 -9 10 0 6 7 10 16
10 8 0 12 -4 9 -10z"/>
<path d="M1282 1325 c0 -22 2 -32 5 -22 2 9 7 17 10 17 3 0 12 -8 19 -17 7
-10 14 -13 14 -6 0 6 -5 15 -10 18 -7 4 -6 14 1 28 12 22 12 22 -9 4 -20 -18
-20 -18 -25 0 -3 10 -5 0 -5 -22z"/>
<path d="M1402 1348 c-14 -14 -16 -32 -3 -23 5 3 12 -5 14 -17 3 -15 5 -9 6
15 1 41 0 42 -17 25z"/>
<path d="M1510 1326 c0 -32 3 -36 25 -36 22 0 24 4 22 33 -2 24 -8 33 -25 35
-19 3 -22 -1 -22 -32z m30 14 c0 -5 -4 -10 -10 -10 -5 0 -10 5 -10 10 0 6 5
10 10 10 6 0 10 -4 10 -10z m10 -30 c0 -5 -7 -10 -15 -10 -8 0 -15 5 -15 10 0
6 7 10 15 10 8 0 15 -4 15 -10z"/>
<path d="M1598 1343 c-3 -10 -2 -27 2 -38 6 -17 7 -17 13 5 3 13 2 30 -2 38
-7 12 -9 11 -13 -5z"/>
<path d="M1647 1346 c-7 -19 1 -46 14 -46 11 0 11 31 0 48 -7 11 -9 11 -14 -2z"/>
<path d="M1707 1353 c-4 -3 -7 -19 -7 -35 0 -24 4 -28 28 -27 16 1 20 3 10 6
-10 2 -18 8 -18 13 0 5 8 11 18 13 16 4 16 5 0 6 -10 0 -18 5 -18 10 0 5 8 12
18 14 14 4 13 5 -4 6 -11 0 -24 -2 -27 -6z"/>
<path d="M1790 1345 c-24 -29 18 -72 43 -45 9 10 9 11 -1 6 -15 -9 -44 12 -36
25 3 5 14 9 25 9 11 0 17 5 14 10 -9 15 -31 12 -45 -5z"/>
<path d="M1868 1353 c6 -2 12 -15 12 -28 0 -13 5 -27 10 -30 6 -4 10 6 10 24
0 16 6 32 13 34 6 3 -4 5 -23 5 -19 0 -29 -2 -22 -5z"/>
<path d="M1950 1325 c0 -32 2 -35 28 -34 23 2 24 2 5 6 -27 5 -31 23 -5 24 15
0 14 1 -3 8 -19 8 -19 8 0 19 19 11 19 11 -2 12 -20 0 -23 -5 -23 -35z"/>
<path d="M2081 1342 c-18 -33 25 -72 45 -40 5 7 2 9 -9 5 -16 -6 -41 15 -30
26 3 4 15 7 25 7 11 0 16 5 13 10 -10 16 -33 12 -44 -8z"/>
<path d="M2212 1325 c0 -22 2 -32 5 -22 2 9 13 17 24 17 11 0 18 -4 14 -9 -3
-5 -1 -12 5 -16 6 -4 10 8 9 32 -1 21 -3 30 -6 21 -2 -10 -13 -18 -23 -18 -10
0 -21 8 -23 18 -3 9 -5 -1 -5 -23z"/>
<path d="M2316 1332 c-21 -40 -20 -45 4 -30 17 11 22 10 30 -2 16 -25 12 10
-4 39 l-14 25 -16 -32z"/>
<path d="M2401 1325 c0 -31 2 -36 9 -20 5 11 9 14 9 8 1 -14 21 -19 21 -5 0 4
-9 18 -20 32 l-20 25 1 -40z"/>
<path d="M2539 1344 c-8 -10 -9 -18 -2 -22 5 -4 13 -14 16 -22 3 -8 6 2 6 23
1 41 -1 44 -20 21z"/>
<path d="M1360 1320 c0 -28 13 -40 24 -22 7 12 -5 52 -15 52 -5 0 -9 -13 -9
-30z"/>
<path d="M2446 1341 c-8 -12 3 -41 15 -41 5 0 9 11 9 25 0 25 -14 34 -24 16z"/>
<path d="M2504 1323 c2 -16 7 -27 12 -25 5 1 9 7 8 12 -1 6 -2 17 -2 25 -1 8
-6 15 -11 15 -5 0 -8 -12 -7 -27z"/>
<path d="M1620 1310 c0 -5 5 -10 10 -10 6 0 10 5 10 10 0 6 -4 10 -10 10 -5 0
-10 -4 -10 -10z"/>
</g>
</svg>
