<?xml version="1.0" standalone="no"?>
<!DOCTYPE svg PUBLIC "-//W3C//DTD SVG 20010904//EN"
 "http://www.w3.org/TR/2001/REC-SVG-20010904/DTD/svg10.dtd">
<svg version="1.0" xmlns="http://www.w3.org/2000/svg"
 width="118.000000pt" height="24.000000pt" viewBox="0 0 118.000000 24.000000"
 preserveAspectRatio="xMidYMid meet">

<g transform="translate(0.000000,24.000000) scale(0.100000,-0.100000)"
fill="#000000" stroke="none">
<path d="M815 215 c-48 -47 -19 -115 49 -115 25 0 39 7 50 22 24 34 20 58 -9
58 -14 0 -25 5 -25 10 0 6 7 10 15 10 24 0 17 20 -11 30 -36 14 -42 13 -69
-15z m33 -50 c-1 -19 -5 -35 -9 -35 -11 0 -20 31 -14 51 10 31 24 21 23 -16z"/>
<path d="M10 212 c0 -10 5 -23 12 -30 9 -9 9 -12 0 -12 -7 0 -12 -14 -12 -35
0 -24 5 -35 15 -35 8 0 15 9 15 20 0 16 7 20 30 20 38 0 57 31 41 66 -9 20
-18 24 -56 24 -37 0 -45 -3 -45 -18z m80 -27 c0 -8 -4 -15 -9 -15 -5 0 -14 7
-21 15 -10 13 -9 15 9 15 12 0 21 -6 21 -15z"/>
<path d="M130 165 l0 -65 50 0 c45 0 50 2 50 22 l0 22 15 -21 c21 -30 51 -34
80 -11 21 16 25 28 25 69 0 46 -2 49 -25 49 -27 0 -32 -9 -14 -27 17 -17 7
-67 -15 -71 -10 -2 -22 2 -27 10 -12 18 -11 58 1 58 6 0 10 7 10 15 0 9 -9 15
-25 15 -22 0 -25 -4 -25 -40 0 -29 -4 -40 -15 -40 -8 0 -15 -4 -15 -10 0 -5
-9 -10 -20 -10 -17 0 -20 7 -20 50 0 38 -4 50 -15 50 -12 0 -15 -14 -15 -65z"/>
<path d="M360 165 c0 -51 3 -65 15 -65 10 0 15 10 15 33 l0 32 26 -32 c14 -18
32 -33 40 -33 17 0 18 12 2 28 -9 9 -9 15 0 24 7 7 12 21 12 33 0 32 -20 45
-67 45 l-43 0 0 -65z m80 19 c0 -17 -22 -14 -28 4 -2 7 3 12 12 12 9 0 16 -7
16 -16z"/>
<path d="M490 165 l0 -65 45 0 c41 0 45 2 45 24 0 29 -18 44 -26 22 -3 -9 -12
-16 -20 -16 -10 0 -14 14 -14 50 0 38 -4 50 -15 50 -12 0 -15 -14 -15 -65z"/>
<path d="M596 203 c9 -33 9 -40 -1 -75 -7 -26 -5 -28 24 -28 31 0 41 13 20 26
-11 7 -8 55 6 87 6 14 2 17 -24 17 -29 0 -31 -2 -25 -27z"/>
<path d="M660 165 l0 -65 60 0 60 0 0 65 c0 50 -3 65 -14 65 -10 0 -16 -13
-18 -37 l-3 -38 -25 37 c-14 21 -33 38 -42 38 -15 0 -18 -10 -18 -65z m60 -27
c0 -5 -7 -8 -15 -8 -10 0 -15 10 -15 27 0 26 1 26 15 7 8 -10 15 -22 15 -26z"/>
<path d="M950 168 c15 -35 34 -64 42 -66 9 -2 23 19 39 55 13 32 26 61 27 65
2 4 -28 8 -67 8 l-70 0 29 -62z m58 6 c-11 -24 -13 -25 -25 -8 -19 26 -16 34
12 34 23 0 24 -2 13 -26z"/>
<path d="M1070 178 c-12 -29 -24 -59 -27 -65 -3 -8 2 -13 11 -13 10 0 24 17
36 43 l18 42 18 -42 c18 -45 51 -62 39 -20 -17 55 -45 107 -58 107 -8 0 -24
-24 -37 -52z"/>
<path d="M30 35 c0 -6 7 -12 15 -12 8 0 15 6 15 12 0 6 -7 12 -15 12 -8 0 -15
-6 -15 -12z"/>
<path d="M91 34 c0 -11 3 -14 6 -6 3 7 2 16 -1 19 -3 4 -6 -2 -5 -13z"/>
<path d="M160 41 c0 -5 7 -11 15 -15 8 -3 15 -1 15 3 0 5 -7 11 -15 15 -8 3
-15 1 -15 -3z"/>
<path d="M216 43 c-11 -11 -6 -23 9 -23 8 0 15 4 15 9 0 13 -16 22 -24 14z"/>
<path d="M260 33 c0 -7 7 -13 15 -13 8 0 15 6 15 13 0 8 -7 14 -15 14 -8 0
-15 -6 -15 -14z"/>
<path d="M331 38 c-1 -10 6 -18 14 -18 8 0 15 8 15 18 0 13 -2 14 -9 3 -7 -11
-9 -11 -14 0 -4 10 -6 9 -6 -3z"/>
<path d="M391 34 c0 -11 3 -14 6 -6 3 7 2 16 -1 19 -3 4 -6 -2 -5 -13z"/>
<path d="M421 34 c0 -11 3 -14 6 -6 3 7 2 16 -1 19 -3 4 -6 -2 -5 -13z"/>
<path d="M446 41 c-4 -7 -5 -15 -2 -18 9 -9 19 4 14 18 -4 11 -6 11 -12 0z"/>
<path d="M533 43 c-18 -7 -16 -23 2 -23 8 0 15 7 15 15 0 8 -1 15 -2 14 -2 0
-9 -3 -15 -6z"/>
<path d="M600 35 c0 -8 5 -15 10 -15 6 0 10 7 10 15 0 8 -4 15 -10 15 -5 0
-10 -7 -10 -15z"/>
<path d="M640 35 c0 -6 9 -11 20 -12 11 -1 20 4 20 10 0 7 -9 13 -20 13 -11 0
-20 -5 -20 -11z"/>
<path d="M700 35 c0 -8 5 -15 10 -15 6 0 10 7 10 15 0 8 -4 15 -10 15 -5 0
-10 -7 -10 -15z"/>
<path d="M740 35 c0 -8 4 -15 10 -15 5 0 7 7 4 15 -4 8 -8 15 -10 15 -2 0 -4
-7 -4 -15z"/>
<path d="M831 34 c0 -11 3 -14 6 -6 3 7 2 16 -1 19 -3 4 -6 -2 -5 -13z"/>
<path d="M960 36 c0 -7 7 -13 15 -13 8 0 15 4 15 8 0 4 -7 9 -15 13 -9 3 -15
0 -15 -8z"/>
<path d="M1016 43 c-11 -11 -7 -20 9 -20 8 0 15 4 15 8 0 11 -16 20 -24 12z"/>
<path d="M1060 34 c0 -15 26 -19 34 -5 3 5 -3 11 -14 14 -13 3 -20 0 -20 -9z"/>
<path d="M1113 37 c4 -14 26 -16 30 -3 1 5 -6 10 -16 12 -10 1 -16 -3 -14 -9z"/>
<path d="M480 29 c0 -5 5 -7 10 -4 6 3 10 8 10 11 0 2 -4 4 -10 4 -5 0 -10 -5
-10 -11z"/>
</g>
</svg>
